<?xml version="1.0" encoding="UTF-8"?>
<svg width="50px" height="51px" viewBox="0 0 50 51" version="1.1" xmlns="http://www.w3.org/2000/svg">
    <!-- Generator: sketchtool 51.3 (57544) - http://www.bohemiancoding.com/sketch -->
    <title>BF2162E3-4B2B-4A03-A682-3904AE6BD879</title>
    <desc>Created with sketchtool.</desc>
    <defs></defs>
    <g id="GUIDES" stroke="none" stroke-width="1" fill="none" fill-rule="evenodd">
        <g id="GUIDES_GALERIA" transform="translate(-1038.000000, -287.000000)">
            <g id="logo_mcexpress2" transform="translate(1038.000000, 287.000000)">
                <path d="M39.6297668,50.6104207 L10.1691451,50.6104207 C4.5530829,50.6104207 -2.59067358e-05,46.0073375 -2.59067358e-05,40.329049 L-2.59067358e-05,10.543376 C-2.59067358e-05,4.86534948 4.5530829,0.261742407 10.1691451,0.261742407 L39.6297668,0.261742407 C45.2460881,0.261742407 49.7989378,4.86534948 49.7989378,10.543376 L49.7989378,40.329049 C49.7989378,46.0073375 45.2460881,50.6104207 39.6297668,50.6104207" id="Fill-1" fill="#F39200"></path>
                <g id="logo_mcexpress" transform="translate(3.000000, 7.000000)">
                    <path d="M17.7940155,12.9518015 C17.7940155,10.9787148 19.3761399,9.3780865 21.3284715,9.3780865 C23.2792487,9.3780865 24.8618912,10.9787148 24.8618912,12.9518015 C24.8618912,14.9235786 23.2792487,16.523945 21.3284715,16.523945 C19.3761399,16.523945 17.7940155,14.9235786 17.7940155,12.9518015 M32.2103368,8.88723764 L29.8103368,7.4864587 C29.3826166,7.23762923 28.8797668,7.11530991 28.3753627,7.10954754 L28.3753627,3.92453036 C28.3753627,2.6984559 27.3916839,1.96951652 26.1792487,2.29823334 L23.5012694,3.02376769 C23.0248446,3.15342093 22.5833938,3.42556179 22.2245855,3.78413815 L19.995829,1.5300051 C19.1377979,0.664078557 17.9336528,0.851879324 17.3059326,1.95144364 L15.9204404,4.37897154 C15.6732902,4.81088711 15.5523057,5.3182373 15.5479016,5.82925445 L12.395829,5.82925445 C11.1839119,5.82925445 10.4642228,6.82273884 10.7890933,8.049861 L11.5061917,10.7568637 C11.6336528,11.2380213 11.9038601,11.6843428 12.2585233,12.0473719 L10.0295078,14.3007191 C9.17121762,15.1682172 9.35800518,16.3851243 10.4450518,17.0208181 L12.8460881,18.4221209 C13.3253627,18.7008099 13.899456,18.8210338 14.4652591,18.7940555 L14.4652591,22.0542453 C14.4652591,23.2800579 15.4481606,24.0082115 16.6608549,23.6802804 L19.3388342,22.9534365 C19.8240674,22.8224736 20.2730311,22.5411653 20.6362435,22.1736835 L22.7738083,24.4799398 C23.630285,25.346914 24.872772,25.0511998 25.5007513,23.9513736 L26.8872798,21.5243695 C27.1372798,21.0832866 27.2587824,20.5646736 27.2587824,20.0450129 L30.3339119,20.0450129 C31.5463472,20.0450129 32.2657772,19.0507427 31.9409067,17.8246683 L31.2243264,15.1176656 C31.0940155,14.6265548 30.8160363,14.1728994 30.4520466,13.8051556 L32.626399,11.6065508 C33.4839119,10.7406243 33.2984197,9.5224076 32.2103368,8.88723764" id="Fill-4" fill="#FFFFFF"></path>
                    <path d="M31.3054922,10.683734 L29.0368394,12.9774178 L27.7653368,12.987633 L30.8487565,9.87909809 L31.2342487,10.1067116 C31.4899482,10.256795 31.5052332,10.4817893 31.3054922,10.683734 Z M29.9946114,18.4825734 L26.7865803,18.4825734 L25.8795855,17.580763 L30.2339896,17.5875731 L30.3474611,18.0244652 C30.4233679,18.3133693 30.2772539,18.4825734 29.9946114,18.4825734 Z M25.6925389,20.3694865 L24.7674093,21.976401 L21.3422798,18.5142664 L21.3440933,17.9275527 C22.0948705,17.9249334 22.8215544,17.7400139 23.4549741,17.4306795 L25.6189637,19.6174977 C25.8202591,19.8217998 25.8404663,20.1141089 25.6925389,20.3694865 Z M24.1832124,22.9897918 C24.035544,23.2477886 23.8130052,23.2629803 23.612487,23.0607736 L21.3440933,20.7678756 L21.3337306,19.482082 L24.4078238,22.5989985 L24.1832124,22.9897918 Z M19.7249223,20.7359206 C19.7249223,21.0232532 19.5342487,21.2432708 19.2516062,21.3197531 L17.4725907,21.7941007 L17.4725907,16.8971368 L17.8839896,16.483556 C18.4171503,17.0189322 19.0598964,17.4081539 19.7249223,17.6412678 L19.7249223,20.7359206 Z M14.7756995,17.3122891 C14.5741451,17.5155435 14.285544,17.5351879 14.0326943,17.3871999 L12.4422798,16.4516011 L15.8671503,12.9881568 L16.4474611,12.9907761 C16.4497927,13.7498369 16.6326943,14.4837529 16.9396891,15.125209 L14.7756995,17.3122891 Z M16.7907254,21.9779726 L16.3513472,22.0940057 C16.0663731,22.1694403 15.8982383,22.0214522 15.8982383,21.7359532 L15.8982383,18.4920027 L16.7907254,17.5755245 L16.7907254,21.9779726 Z M11.4404663,15.8601727 C11.1858031,15.7106131 11.1694819,15.485357 11.3702591,15.2828883 L13.6394301,12.9907761 L14.9106736,12.9808229 L11.8269948,16.0877862 L11.4404663,15.8601727 Z M12.6808808,7.48378706 L15.8889119,7.48378706 L16.7961658,8.38664514 L12.4412435,8.38664514 L12.3269948,7.94163328 C12.2521244,7.65377687 12.3982383,7.48378706 12.6808808,7.48378706 Z M17.8749223,9.49354338 C17.3456477,10.031015 16.962228,10.6795432 16.7298446,11.3532162 L13.6710363,11.3532162 C13.3850259,11.3532162 13.1674093,11.1596531 13.0922798,10.874416 L12.6233679,9.0757718 L17.4663731,9.0757718 L17.8749223,9.49354338 Z M16.9824352,5.59818355 L17.9088601,3.98995941 L21.3332124,7.45287982 L21.331658,8.03933158 C20.5795855,8.04116506 19.8541969,8.22687043 19.22,8.53699052 L17.0567876,6.34886276 C16.854456,6.14560838 16.835544,5.85382308 16.9824352,5.59818355 Z M18.4922798,2.97630674 C18.6407254,2.72040528 18.8637824,2.70390395 19.0632642,2.90611064 L21.331658,5.19979447 L21.3417617,6.48637378 L18.2676684,3.36762382 L18.4922798,2.97630674 Z M22.950829,5.23253519 C22.950829,4.94389301 23.1407254,4.72256575 23.423886,4.64817883 L25.2029016,4.17278359 L25.2029016,9.06896173 L24.7912435,9.48332827 C24.258342,8.94742818 23.6155959,8.55977806 22.950829,8.32483066 L22.950829,5.23253519 Z M29.004456,14.6144538 C29.2899482,14.6144538 29.508342,14.8061835 29.5826943,15.0929922 L30.0521244,16.8905886 L25.208342,16.8905886 L24.8000518,16.4743886 C25.3303627,15.936917 25.7135233,15.2862934 25.9451295,14.6144538 L29.004456,14.6144538 Z M27.8992746,8.65590481 C28.1013472,8.45160272 28.3907254,8.43064866 28.6425389,8.58073212 L30.2329534,9.51633092 L26.808342,12.9789894 L26.2272539,12.9774178 C26.2264767,12.2170474 26.043057,11.4839172 25.7360622,10.8419372 L27.8992746,8.65590481 Z M25.8839896,3.98864978 L26.323886,3.8739263 C26.6096373,3.79796783 26.7772539,3.94569396 26.7772539,4.23119303 L26.7772539,7.47461966 L25.8839896,8.39188365 L25.8839896,3.98864978 Z" id="Fill-6" fill="#BA0D0C"></path>
                    <path d="M19.7797668,29.7206812 L15.0872798,29.7206812 L15.0872798,30.4050932 L19.4831347,30.4050932 C19.8924611,30.4050932 20.1245855,30.8066254 20.1245855,31.1345565 C20.1245855,31.5625431 19.9440155,31.9182383 19.4831347,31.9182383 L16.349456,31.9182383 C15.6093005,31.9182383 15.0872798,32.5308827 15.0872798,33.3719263 L15.0872798,34.7192723 L16.1774352,34.7192723 L16.1774352,33.3370901 C16.1774352,32.9091035 16.4479016,32.6600121 16.772513,32.6600121 L19.7797668,32.6600121 C20.8168135,32.6600121 21.2297668,31.9763858 21.2297668,31.1345565 C21.2297668,30.3925208 20.8168135,29.7206812 19.7797668,29.7206812" id="Fill-8" fill="#BA0D0C"></path>
                    <path d="M21.9535233,31.1182909 L21.9535233,34.7192462 L23.1799482,34.7192462 L23.1799482,31.1182909 C23.1799482,30.7264499 23.3491192,30.4414747 23.744456,30.4414747 L26.8897927,30.4414747 L26.8897927,29.7274651 L23.406114,29.7274651 C22.4258031,29.7274651 21.9535233,30.3270132 21.9535233,31.1182909" id="Fill-10" fill="#BA0D0C"></path>
                    <path d="M39.8526943,29.7206812 L37.2174611,29.7206812 C36.1951813,29.7206812 35.7778238,30.3482553 35.7778238,31.076147 L35.7778238,33.3001586 C35.7778238,33.7129536 35.6096891,33.9609973 35.2148705,33.9609973 L33.5879275,33.9609973 L33.5879275,33.9599496 L29.2874093,33.9599496 C28.8990674,33.9599496 28.6498446,33.6967142 28.6498446,33.2902054 L28.6498446,31.058598 C28.6498446,30.7377389 28.8990674,30.4027359 29.2874093,30.4027359 L32.1941451,30.4027359 C32.5120207,30.4027359 32.836114,30.7448109 32.836114,31.1515816 C32.836114,31.5719725 32.5120207,31.9567414 32.1941451,31.9567414 L29.1529534,31.9567414 L29.1529534,32.6411534 L32.4690155,32.6411534 C33.3718653,32.6411534 33.8793782,31.9708854 33.8793782,31.1515816 C33.8793782,30.4530256 33.3718653,29.7256578 32.4690155,29.7256578 L28.913057,29.7256578 C28.0172021,29.7256578 27.5026943,30.331754 27.5026943,31.058598 L27.5026943,33.2902054 C27.5026943,34.1108188 28.0172021,34.7122004 28.913057,34.7122004 L33.5879275,34.7122004 L33.5879275,34.7119384 L35.4969948,34.7119384 C36.5262694,34.7119384 36.9428497,34.1904442 36.9428497,33.3572584 L36.9428497,31.1866797 C36.9428497,30.850367 37.1112435,30.5158878 37.5138342,30.5158878 L39.8526943,30.5158878 L39.8526943,29.7206812 Z" id="Fill-12" fill="#BA0D0C"></path>
                    <path d="M42.3257254,29.7206812 C41.3029275,29.7206812 40.8868653,30.3482553 40.8868653,31.076147 L40.8868653,33.3001586 C40.8868653,33.7129536 40.7176943,33.9701647 40.3231347,33.9701647 L37.924171,33.9701647 L37.924171,34.7119384 L40.6044819,34.7119384 C41.6345337,34.7119384 42.0505959,34.1904442 42.0505959,33.3572584 L42.0505959,31.1866797 C42.0505959,30.850367 42.2200259,30.5158878 42.6223575,30.5158878 L44.9604404,30.5158878 L44.9604404,29.7206812 L42.3257254,29.7206812 Z" id="Fill-14" fill="#BA0D0C"></path>
                    <path d="M12.7409326,30.9029355 C12.7409326,31.0616625 12.6468912,31.1687902 12.488342,31.1687902 L8.50803109,31.1687902 C8.35103627,31.1687902 8.24533679,31.0737111 8.24533679,30.9144603 L8.24533679,29.7242696 L7.37305699,29.7242696 L7.37305699,30.7926648 C7.37305699,31.4956735 7.85854922,31.9752596 8.61398964,31.9752596 L12.4233161,31.9752596 C13.1720207,31.9752596 13.6668394,31.4642424 13.6668394,30.7182779 L13.6668394,29.8332307 L13.6668394,29.7242696 L12.7409326,29.7242696 L12.7409326,30.9029355 Z" id="Fill-16" fill="#BA0D0C"></path>
                    <path d="M12.4254404,32.3417199 L8.61585492,32.3417199 C7.86715026,32.3417199 7.37310881,32.8522132 7.37310881,33.5989635 L7.37310881,34.7207915 L7.37310881,34.7336259 L8.29875648,34.7207915 L8.29875648,33.3789459 C8.29875648,33.219695 8.39253886,33.1125674 8.55108808,33.1125674 L12.5308808,33.1125674 C12.6886528,33.1125674 12.7943523,33.2071226 12.7943523,33.3671592 L12.7943523,34.7207915 L13.6668912,34.7207915 L13.6668912,33.5235289 C13.6668912,32.821044 13.1808808,32.3417199 12.4254404,32.3417199" id="Fill-18" fill="#BA0D0C"></path>
                    <path d="M4.75259067,31.9567676 L1.71165803,31.9567676 L1.71165803,32.6411796 L5.02772021,32.6411796 C5.93031088,32.6411796 6.43860104,31.9709116 6.43860104,31.1516078 C6.43860104,30.4530518 5.93031088,29.7251602 5.02772021,29.7251602 L1.47202073,29.7251602 C0.575906736,29.7251602 0.0616580311,30.3317802 0.0616580311,31.0586242 L0.0616580311,33.2902316 C0.0616580311,34.110845 0.575906736,34.7122265 1.47202073,34.7122265 L6.14611399,34.7122265 L6.14611399,33.9594519 L1.84559585,33.9594519 C1.45777202,33.9594519 1.20777202,33.6967404 1.20777202,33.2902316 L1.20777202,31.0586242 C1.20777202,30.7377651 1.45777202,30.4022382 1.84559585,30.4022382 L4.75259067,30.4022382 C5.07072539,30.4022382 5.39481865,30.7448371 5.39481865,31.1516078 C5.39481865,31.5719987 5.07072539,31.9567676 4.75259067,31.9567676" id="Fill-20" fill="#BA0D0C"></path>
                </g>
            </g>
        </g>
    </g>
</svg>